<svg xmlns:x="http://ns.adobe.com/Extensibility/1.0/" xmlns:i="http://ns.adobe.com/AdobeIllustrator/10.0/" xmlns:graph="http://ns.adobe.com/Graphs/1.0/" xmlns="http://www.w3.org/2000/svg" xmlns:xlink="http://www.w3.org/1999/xlink" version="1.1" x="0px" y="0px" viewBox="0 0 100 125" enable-background="new 0 0 100 100" xml:space="preserve"><metadata><sfw xmlns="http://ns.adobe.com/SaveForWeb/1.0/"><slices/><sliceSourceBounds width="1447.7" height="1443.7" x="1.2" y="-1446.3" bottomLeftOrigin="true"/></sfw></metadata><path d="M44.3,3.7c-9.8,0-17.8,7.5-17.8,17.6H12.2V75c0,6.8,5.7,12.5,12.6,12.5h27.1c-0.7-2.1-1.1-4.3-1.1-6.6  c0-11.9,9.7-21.5,21.5-21.5c1.4,0,2.8,0.1,4.2,0.4V21.3H62.2C62.2,11.2,54.2,3.7,44.3,3.7z M31.6,21.3c0-6.4,5.7-12.7,12.8-12.7  c7.1,0,12.8,6.2,12.8,12.7H31.6z M72.3,65.3c-8.6,0-15.5,6.9-15.5,15.5c0,8.6,6.9,15.5,15.5,15.5c8.6,0,15.5-6.9,15.5-15.5  C87.8,72.3,80.9,65.3,72.3,65.3z M78.7,78.9l-5.3,5.3l-1.5,1.5c-0.8,0.8-2.1,0.8-2.9,0l-1.5-1.5L66,82.8c-0.8-0.8-0.8-2.2,0-3l0,0  c0.8-0.8,2.2-0.8,3,0l1.4,1.4l5.3-5.3c0.8-0.8,2.2-0.8,3,0C79.5,76.8,79.5,78.1,78.7,78.9z"/><text x="0" y="115" fill="#000000" font-size="5px" font-weight="bold" font-family="'Helvetica Neue', Helvetica, Arial-Unicode, Arial, Sans-serif">Created by Gregor Cresnar</text><text x="0" y="120" fill="#000000" font-size="5px" font-weight="bold" font-family="'Helvetica Neue', Helvetica, Arial-Unicode, Arial, Sans-serif">from the Noun Project</text></svg>